<svg xmlns="http://www.w3.org/2000/svg" xmlns:xlink="http://www.w3.org/1999/xlink" version="1.1" id="Layer_1" x="0px" y="0px" viewBox="0 0 73 26" style="enable-background:new 0 0 73 26;" xml:space="preserve">
<style type="text/css">
	.st0{fill:#FFFFFF;}
</style>
<g>
	<path class="st0" d="M1.2,11.9V0.2h6c1.1,0,2,0.1,2.6,0.3c0.6,0.2,1.1,0.6,1.4,1.1c0.4,0.6,0.6,1.2,0.5,1.9c0,1.2-0.5,2.2-1.6,2.8   C9.8,6.5,9.4,6.7,8.9,6.7C9.2,6.8,9.6,7,9.9,7.2c0.2,0.2,0.4,0.4,0.6,0.6c0.2,0.2,0.4,0.5,0.5,0.7l1.8,3.4H8.6L6.7,8.3   C6.4,7.9,6.2,7.6,6,7.4C5.7,7.2,5.4,7.1,5.1,7.1H4.8v4.7L1.2,11.9L1.2,11.9z M4.8,4.9h1.5c0.3,0,0.6-0.1,1-0.2   c0.2,0,0.4-0.2,0.6-0.4c0.4-0.5,0.3-1.1-0.1-1.5C7.5,2.7,7,2.6,6.4,2.6H4.8V4.9z M0.4,21.9l3.4-0.2c0.1,0.6,0.2,1,0.5,1.3   c0.4,0.5,0.9,0.7,1.6,0.7c0.5,0,0.9-0.1,1.2-0.4c0.3-0.2,0.4-0.5,0.4-0.8c0-0.3-0.1-0.6-0.4-0.8c-0.3-0.2-0.9-0.5-1.9-0.7   c-1.6-0.4-2.7-0.8-3.4-1.4c-0.7-0.6-1-1.4-1-2.3c0-0.6,0.2-1.2,0.5-1.7c0.4-0.6,0.9-1,1.6-1.3c0.7-0.3,1.7-0.5,2.9-0.5   c1.5,0,2.6,0.3,3.4,0.8c0.8,0.6,1.2,1.4,1.4,2.7l-3.4,0.2c-0.1-0.5-0.3-0.9-0.6-1.2c-0.3-0.2-0.7-0.4-1.2-0.4   c-0.4,0-0.7,0.1-0.9,0.3c-0.2,0.2-0.3,0.4-0.3,0.7c0,0.2,0.1,0.4,0.3,0.5c0.2,0.2,0.6,0.3,1.2,0.4c1.6,0.3,2.7,0.7,3.4,1   c0.7,0.4,1.2,0.8,1.5,1.3c0.3,0.5,0.5,1.1,0.5,1.7c0,0.7-0.2,1.5-0.6,2.1c-0.4,0.6-1,1.1-1.7,1.4C7.9,25.8,6.9,26,5.8,26   c-2,0-3.4-0.4-4.1-1.2C0.9,24.1,0.5,23.1,0.4,21.9L0.4,21.9z"/>
	<path class="st0" d="M17.7,21l3.2,1c-0.2,0.8-0.5,1.6-1,2.2c-0.4,0.6-1,1-1.7,1.3c-0.7,0.3-1.5,0.5-2.6,0.5c-1.3,0-2.3-0.2-3.1-0.5   c-0.8-0.4-1.5-1-2.1-1.9c-0.6-0.9-0.9-2.1-0.9-3.6c0-1.9,0.5-3.4,1.5-4.5s2.5-1.6,4.4-1.6c1.5,0,2.6,0.3,3.5,0.9   c0.8,0.6,1.5,1.5,1.9,2.7l-3.2,0.7c-0.1-0.3-0.2-0.5-0.4-0.8c-0.2-0.3-0.4-0.5-0.7-0.6s-0.6-0.2-1-0.2c-0.8,0-1.5,0.3-1.9,1   c-0.3,0.5-0.5,1.3-0.5,2.3c0,1.3,0.2,2.2,0.6,2.7c0.4,0.5,0.9,0.7,1.7,0.7c0.7,0,1.2-0.2,1.6-0.6C17.3,22.3,17.6,21.7,17.7,21   L17.7,21z M25.1,14.1h3.6v4.1h3.9v-4.1h3.6v11.7h-3.6v-4.7h-3.9v4.7h-3.6C25.1,25.8,25.1,14.1,25.1,14.1z"/>
	<path class="st0" d="M35.8,19.9c0-1.9,0.5-3.4,1.6-4.5s2.6-1.6,4.4-1.6c1.9,0,3.4,0.5,4.5,1.6S48,18,48,19.9c0,1.4-0.2,2.5-0.7,3.4   c-0.4,0.9-1.1,1.6-2,2c-0.9,0.5-2,0.7-3.3,0.7c-1.3,0-2.4-0.2-3.3-0.6c-0.9-0.4-1.6-1.1-2.1-2C36.1,22.5,35.8,21.3,35.8,19.9z    M39.4,20c0,1.2,0.2,2,0.7,2.6c0.4,0.5,1,0.8,1.8,0.8c0.8,0,1.4-0.2,1.8-0.8c0.4-0.5,0.6-1.4,0.6-2.7c0-1.1-0.2-1.9-0.7-2.4   c-0.4-0.5-1-0.8-1.8-0.8c-0.7,0-1.3,0.3-1.8,0.8S39.4,18.8,39.4,20L39.4,20z"/>
	<path class="st0" d="M63.4,14.1H67v8.8h5.6v2.9h-9.3L63.4,14.1L63.4,14.1z"/>
	<path class="st0" d="M61.9,3.1c-2.3-3-7-3.2-10.7-0.5S46.5,10,48.8,13c2.3,3,7,3.2,10.7,0.5C63.1,10.7,64.2,6,61.9,3.1z M59.3,13.2   c-1.7,1.3-3.7,2-5.7,1.9C51.7,15,50,14.2,49,12.8c-1-1.4-1.4-3.2-0.9-5.1c0.5-1.9,1.7-3.7,3.4-4.9c1.7-1.3,3.7-2,5.7-1.9   C59,1,60.7,1.8,61.7,3.2c1,1.4,1.4,3.2,0.9,5.1C62.2,10.2,61,11.9,59.3,13.2z"/>
	<g>
		<path class="st0" d="M51.7,7.2L53,6.2l1.6,2.3c0.3,0.4,0.5,0.8,0.6,1.2c0.1,0.3,0.1,0.7-0.1,1c-0.2,0.4-0.4,0.7-0.8,1    c-0.4,0.3-0.8,0.5-1.1,0.5c-0.3,0.1-0.6,0-0.9-0.1c-0.3-0.2-0.6-0.4-0.8-0.7l1.1-1c0.1,0.1,0.2,0.3,0.3,0.4    c0.1,0.1,0.2,0.1,0.3,0.1c0.1,0,0.2,0,0.2-0.1c0.1-0.1,0.2-0.2,0.2-0.4c0-0.2-0.1-0.4-0.3-0.6L51.7,7.2L51.7,7.2z M55.6,8.6    l1.2-0.9c0.1,0.2,0.3,0.3,0.5,0.3c0.3,0.1,0.5,0,0.8-0.1c0.2-0.1,0.3-0.2,0.3-0.4c0.1-0.2-0.1-0.5-0.3-0.6c0,0-0.1,0-0.1,0    c-0.2,0-0.4,0.1-0.8,0.2c-0.7,0.3-1.2,0.4-1.6,0.3c-0.4,0-0.7-0.2-0.9-0.6c-0.2-0.2-0.2-0.5-0.2-0.7c0-0.3,0.1-0.6,0.2-0.9    c0.2-0.4,0.5-0.7,0.9-0.9c0.5-0.4,1-0.6,1.5-0.6c0.4,0,0.8,0.2,1.2,0.6L57,5.3c-0.2-0.3-0.7-0.4-1-0.1l0,0    c-0.1,0.1-0.2,0.2-0.3,0.3c0,0.1,0,0.2,0.1,0.3C55.8,5.9,55.9,6,55.9,6c0.1,0,0.3,0,0.5-0.2c0.7-0.3,1.2-0.4,1.5-0.5    c0.3-0.1,0.6,0,0.9,0.1c0.2,0.1,0.5,0.3,0.6,0.5c0.2,0.3,0.3,0.6,0.3,0.9c0,0.3-0.1,0.7-0.3,1c-0.2,0.4-0.5,0.7-0.9,0.9    c-0.7,0.5-1.3,0.7-1.8,0.6C56.3,9.2,55.9,9,55.6,8.6L55.6,8.6z"/>
	</g>
	<path class="st0" d="M48.1,7.8c0-0.2,0.1-0.4,0.1-0.5c-0.1-0.3-0.2-0.6-0.4-0.9c-0.3-0.5-0.8-0.9-1.5-1.3c-0.7-0.4-1.8-0.7-3.4-1   c-0.6-0.1-1-0.3-1.2-0.4c-0.2-0.1-0.3-0.3-0.3-0.5c0-0.3,0.1-0.5,0.3-0.7c0.2-0.2,0.5-0.3,0.9-0.3c0.5,0,0.9,0.1,1.2,0.4   c0.3,0.2,0.5,0.6,0.6,1.2l3.4-0.2c-0.1-1.2-0.6-2.1-1.4-2.7C45.7,0.3,44.6,0,43.1,0c-1.2,0-2.2,0.2-2.9,0.5   c-0.6,0.2-1.2,0.7-1.6,1.3c-0.3,0.5-0.5,1.1-0.5,1.7c0,0.9,0.4,1.7,1,2.3c0.7,0.6,1.8,1.1,3.4,1.4c1,0.2,1.6,0.4,1.8,0.7   c0.2,0.2,0.4,0.5,0.4,0.8c0,0.3-0.2,0.6-0.4,0.8c-0.3,0.2-0.7,0.4-1.2,0.4c-0.7,0-1.2-0.2-1.6-0.7c-0.2-0.3-0.4-0.7-0.5-1.3L37.7,8   c0.1,1.2,0.5,2.1,1.3,2.9c0.8,0.8,2.1,1.2,4.1,1.2c1.1,0,2.1-0.2,2.8-0.5c0.7-0.3,1.3-0.8,1.7-1.4c0.1-0.1,0.1-0.2,0.2-0.3   C47.8,9.2,47.9,8.5,48.1,7.8z"/>
	<path class="st0" d="M62.2,15.5c-1-1-2.3-1.5-4-1.6c-1.4,0.8-3,1.2-4.5,1.2c-0.2,0.1-0.3,0.3-0.5,0.4c-1.1,1.1-1.6,2.6-1.6,4.5   c0,1.4,0.3,2.5,0.8,3.4c0.5,0.9,1.2,1.5,2.1,2c0.9,0.4,1.9,0.6,3.3,0.6c1.3,0,2.4-0.2,3.3-0.7c0.9-0.5,1.5-1.2,2-2   c0.5-0.9,0.7-2,0.7-3.4C63.8,18,63.2,16.5,62.2,15.5z M59.5,22.5c-0.4,0.5-1,0.8-1.8,0.8c-0.8,0-1.4-0.3-1.8-0.8   c-0.4-0.5-0.7-1.4-0.7-2.6c0-1.2,0.2-2,0.7-2.6c0.4-0.5,1.1-0.8,1.8-0.8c0.8,0,1.4,0.2,1.8,0.8c0.4,0.5,0.7,1.3,0.7,2.4   C60.2,21.1,59.9,22,59.5,22.5z"/>
</g>
</svg>